<svg xmlns="http://www.w3.org/2000/svg" width="40" height="40" viewBox="0 0 40 40" fill="none"><path fill-rule="evenodd" clip-rule="evenodd" d="M20.0001 38.3332C30.1253 38.3332 38.3334 30.1251 38.3334 19.9998C38.3334 9.87459 30.1253 1.6665 20.0001 1.6665C9.87483 1.6665 1.66675 9.87459 1.66675 19.9998C1.66675 30.1251 9.87483 38.3332 20.0001 38.3332ZM25.7797 20.7953C25.3917 23.6407 22.9519 25.8332 20.0001 25.8332C17.0482 25.8332 14.6085 23.6407 14.2206 20.7953H9.12883C8.68958 20.7953 8.33341 20.4392 8.33341 19.9998C8.33341 19.5605 8.68958 19.2044 9.12883 19.2044H14.2206C14.6085 16.359 17.0482 14.1665 20.0001 14.1665C22.9519 14.1665 25.3917 16.359 25.7797 19.2044H30.8713C31.3106 19.2044 31.6667 19.5605 31.6667 19.9998C31.6667 20.4392 31.3106 20.7953 30.8713 20.7953H25.7797Z" fill="white"></path></svg>