<svg xmlns="http://www.w3.org/2000/svg" width="48" height="48" viewBox="0 0 48 48" fill="none"><path fill-rule="evenodd" clip-rule="evenodd" d="M24 46C36.1503 46 46 36.1503 46 24C46 11.8497 36.1503 2 24 2C11.8497 2 2 11.8497 2 24C2 36.1503 11.8497 46 24 46ZM30.9355 24.9545C30.4699 28.369 27.5422 31 24 31C20.4578 31 17.5301 28.369 17.0646 24.9545H10.9545C10.4274 24.9545 10 24.5272 10 24C10 23.4728 10.4274 23.0455 10.9545 23.0455H17.0646C17.5301 19.631 20.4578 17 24 17C27.5422 17 30.4699 19.631 30.9355 23.0455H37.0455C37.5726 23.0455 38 23.4728 38 24C38 24.5272 37.5726 24.9545 37.0455 24.9545H30.9355Z" fill="black"></path></svg>