<svg xmlns="http://www.w3.org/2000/svg" width="48" height="48" viewBox="0 0 48 48" fill="none"><path fill-rule="evenodd" clip-rule="evenodd" d="M2 7C2 5.89543 2.89543 5 4 5H44C45.1046 5 46 5.89543 46 7V43C46 44.1046 45.1046 45 44 45H4C2.89543 45 2 44.1046 2 43V7ZM4 12H44V42C44 42.5523 43.5523 43 43 43H5C4.44771 43 4 42.5523 4 42V12ZM36 8.5C36 9.05228 35.5523 9.5 35 9.5C34.4477 9.5 34 9.05228 34 8.5C34 7.94772 34.4477 7.5 35 7.5C35.5523 7.5 36 7.94772 36 8.5ZM38 9.5C38.5523 9.5 39 9.05228 39 8.5C39 7.94772 38.5523 7.5 38 7.5C37.4477 7.5 37 7.94772 37 8.5C37 9.05228 37.4477 9.5 38 9.5ZM41 9.5C41.5523 9.5 42 9.05228 42 8.5C42 7.94772 41.5523 7.5 41 7.5C40.4477 7.5 40 7.94772 40 8.5C40 9.05228 40.4477 9.5 41 9.5Z" fill="black"></path><path d="M19 24L11 27.5L19 31" stroke="black" stroke-width="2" stroke-linecap="round" stroke-linejoin="round"></path><path d="M29 24L37 27.5L29 31" stroke="black" stroke-width="2" stroke-linecap="round" stroke-linejoin="round"></path><path d="M25.5 19.5L21 35.5" stroke="black" stroke-width="2" stroke-linecap="round"></path></svg>