<svg xmlns="http://www.w3.org/2000/svg" width="40" height="40" viewBox="0 0 40 40" fill="none"><path fill-rule="evenodd" clip-rule="evenodd" d="M1.66675 5.83317C1.66675 4.9127 2.41294 4.1665 3.33341 4.1665H36.6667C37.5872 4.1665 38.3334 4.9127 38.3334 5.83317V35.8332C38.3334 36.7537 37.5872 37.4998 36.6667 37.4998H3.33341C2.41294 37.4998 1.66675 36.7537 1.66675 35.8332V5.83317ZM3.33341 9.99984H36.6667V34.9998C36.6667 35.4601 36.2937 35.8332 35.8334 35.8332H4.16675C3.70651 35.8332 3.33341 35.4601 3.33341 34.9998V9.99984ZM30.0001 7.08317C30.0001 7.5434 29.627 7.9165 29.1667 7.9165C28.7065 7.9165 28.3334 7.5434 28.3334 7.08317C28.3334 6.62294 28.7065 6.24984 29.1667 6.24984C29.627 6.24984 30.0001 6.62294 30.0001 7.08317ZM31.6667 7.9165C32.127 7.9165 32.5001 7.5434 32.5001 7.08317C32.5001 6.62294 32.127 6.24984 31.6667 6.24984C31.2065 6.24984 30.8334 6.62294 30.8334 7.08317C30.8334 7.5434 31.2065 7.9165 31.6667 7.9165ZM34.1667 7.9165C34.627 7.9165 35.0001 7.5434 35.0001 7.08317C35.0001 6.62294 34.627 6.24984 34.1667 6.24984C33.7065 6.24984 33.3334 6.62294 33.3334 7.08317C33.3334 7.5434 33.7065 7.9165 34.1667 7.9165Z" fill="white"></path><path d="M15.8334 20L9.16675 22.9167L15.8334 25.8333" stroke="white" stroke-width="2" stroke-linecap="round" stroke-linejoin="round"></path><path d="M24.1667 20L30.8334 22.9167L24.1667 25.8333" stroke="white" stroke-width="2" stroke-linecap="round" stroke-linejoin="round"></path><path d="M21.25 16.25L17.5 29.5833" stroke="white" stroke-width="2" stroke-linecap="round"></path></svg>