<svg xmlns="http://www.w3.org/2000/svg" width="48" height="48" viewBox="0 0 48 48" fill="none"><path d="M11.5 13.811C14.0878 13.1449 16 10.7958 16 8C16 4.68629 13.3137 2 10 2C6.68629 2 4 4.68629 4 8C4 10.7958 5.91216 13.1449 8.5 13.811V34.189C5.91216 34.8551 4 37.2042 4 40C4 43.3137 6.68629 46 10 46C13.3137 46 16 43.3137 16 40C16 37.2584 14.1612 34.9463 11.6497 34.2296L14.0606 30.6133C14.5243 29.9178 15.3049 29.5 16.1407 29.5H34C37.0375 29.5 39.5 27.0375 39.5 24V21.811C42.0878 21.1449 44 18.7958 44 16C44 12.6863 41.3137 10 38 10C34.6863 10 32 12.6863 32 16C32 18.7958 33.9122 21.1449 36.5 21.811V24C36.5 25.3807 35.3807 26.5 34 26.5H16.1407C14.3018 26.5 12.5845 27.4191 11.5644 28.9491L11.5 29.0458V13.811Z" fill="black"></path></svg>