<svg xmlns="http://www.w3.org/2000/svg" width="48" height="48" viewBox="0 0 48 48" fill="none"><path d="M40.1452 8.28802L38.9645 8.21289C39.3442 4.95698 36.5274 2 33 2C29.7394 2 27.0863 4.42743 27.0021 7.45165L26.9004 7.44517C24.7025 7.30531 22.7804 8.62982 22.1878 10.5H9.5C5.35786 10.5 2 13.8579 2 18V30C2 30.8284 2.67157 31.5 3.5 31.5C4.32843 31.5 5 30.8284 5 30V18C5 15.5147 7.01472 13.5 9.5 13.5H22.4151C23.1396 14.9753 24.7357 16 26.5883 16H39.8638C42.1482 16 44 14.2716 44 12.1395C44 10.1094 42.3153 8.42612 40.1452 8.28802Z" fill="black"></path><path d="M46 24C46 23.1716 45.3284 22.5 44.5 22.5C43.6716 22.5 43 23.1716 43 24V36C43 38.4853 40.9853 40.5 38.5 40.5H25.8122C25.2196 38.6298 23.2975 37.3053 21.0996 37.4452L20.9979 37.4516C20.9137 34.4274 18.2606 32 15 32C11.4726 32 8.65579 34.957 9.03552 38.2129L7.85485 38.288C5.68472 38.4261 4 40.1094 4 42.1395C4 44.2716 5.85184 46 8.13621 46H21.4117C23.2643 46 24.8604 44.9753 25.5849 43.5H38.5C42.6421 43.5 46 40.1421 46 36V24Z" fill="black"></path></svg>