<svg xmlns="http://www.w3.org/2000/svg" width="48" height="48" viewBox="0 0 48 48" fill="none"><path fill-rule="evenodd" clip-rule="evenodd" d="M2 7C2 5.89543 2.89543 5 4 5H44C45.1046 5 46 5.89543 46 7V41C46 42.1046 45.1046 43 44 43H4C2.89543 43 2 42.1046 2 41V7ZM3 12H45V41C45 41.5523 44.5523 42 44 42H4C3.44772 42 3 41.5523 3 41V12ZM37 8.5C37 9.32843 36.3284 10 35.5 10C34.6716 10 34 9.32843 34 8.5C34 7.67157 34.6716 7 35.5 7C36.3284 7 37 7.67157 37 8.5ZM42 8.5C42 9.32843 41.3284 10 40.5 10C39.6716 10 39 9.32843 39 8.5C39 7.67157 39.6716 7 40.5 7C41.3284 7 42 7.67157 42 8.5Z" fill="black"></path><path d="M17 27.4834C17 31.3494 20.134 34.4834 24 34.4834C25.1487 34.4834 26.2328 34.2067 27.1893 33.7163L23.5 28.0001V20.501C19.8674 20.7573 17 23.7855 17 27.4834Z" fill="black"></path><path d="M30.0292 23.0225C29.3317 22.0799 28.423 21.3139 27.3759 20.7861C26.478 20.3335 25.4999 20.0668 24.5 20V27L30.0292 23.0225Z" fill="black"></path><path d="M31.3387 29.0305C31.7223 27.2107 31.4162 25.3133 30.4796 23.7065L24.5 27.9834L28.4035 33.5546C29.909 32.4626 30.9551 30.8503 31.3387 29.0305Z" fill="black"></path></svg>