<svg xmlns="http://www.w3.org/2000/svg" width="70" height="70" viewBox="0 0 70 70" fill="none"><circle cx="35" cy="35" r="35" fill="#ECF1FB"></circle><path fill-rule="evenodd" clip-rule="evenodd" d="M16.6667 20.8333C16.6667 19.9128 17.4129 19.1666 18.3334 19.1666H51.6667C52.5872 19.1666 53.3334 19.9128 53.3334 20.8333V49.1666C53.3334 50.0871 52.5872 50.8333 51.6667 50.8333H18.3334C17.4129 50.8333 16.6667 50.0871 16.6667 49.1666V20.8333ZM17.5001 25H52.5001V49.1666C52.5001 49.6269 52.127 50 51.6667 50H18.3334C17.8732 50 17.5001 49.6269 17.5001 49.1666V25ZM45.8334 22.0833C45.8334 22.7737 45.2737 23.3333 44.5834 23.3333C43.8931 23.3333 43.3334 22.7737 43.3334 22.0833C43.3334 21.3929 43.8931 20.8333 44.5834 20.8333C45.2737 20.8333 45.8334 21.3929 45.8334 22.0833ZM50.0001 22.0833C50.0001 22.7737 49.4404 23.3333 48.7501 23.3333C48.0597 23.3333 47.5001 22.7737 47.5001 22.0833C47.5001 21.3929 48.0597 20.8333 48.7501 20.8333C49.4404 20.8333 50.0001 21.3929 50.0001 22.0833Z" fill="#A561CF"></path><path d="M29.1667 37.9028C29.1667 41.1244 31.7784 43.7361 35.0001 43.7361C35.9573 43.7361 36.8607 43.5055 37.6578 43.0969L34.5834 38.3334V32.0841C31.5562 32.2977 29.1667 34.8212 29.1667 37.9028Z" fill="#A561CF"></path><path d="M40.0244 34.1854C39.4432 33.3999 38.6859 32.7615 37.8133 32.3217C37.0651 31.9445 36.25 31.7223 35.4167 31.6666V37.5L40.0244 34.1854Z" fill="#A561CF"></path><path d="M41.1157 39.192C41.4353 37.6755 41.1802 36.0944 40.3997 34.7554L35.4167 38.3195L38.6697 42.9621C39.9242 42.0521 40.796 40.7085 41.1157 39.192Z" fill="#A561CF"></path></svg>