<svg xmlns="http://www.w3.org/2000/svg" width="70" height="70" viewBox="0 0 70 70" fill="none"><circle cx="35" cy="35" r="35" fill="#ECF3FE"></circle><path fill-rule="evenodd" clip-rule="evenodd" d="M18.3332 17.5C17.4127 17.5 16.6665 18.2462 16.6665 19.1667V38.3333H53.3332V19.1667C53.3332 18.2462 52.587 17.5 51.6665 17.5H18.3332ZM53.3332 40H16.6665V45C16.6665 45.9205 17.4127 46.6667 18.3332 46.6667H51.6665C52.587 46.6667 53.3332 45.9205 53.3332 45V40ZM36.6665 43.3333C36.6665 44.2538 35.9203 45 34.9998 45C34.0793 45 33.3332 44.2538 33.3332 43.3333C33.3332 42.4128 34.0793 41.6667 34.9998 41.6667C35.9203 41.6667 36.6665 42.4128 36.6665 43.3333ZM44.1665 24.1667C44.1665 24.6269 43.7934 25 43.3332 25C42.8729 25 42.4998 24.6269 42.4998 24.1667C42.4998 23.7064 42.8729 23.3333 43.3332 23.3333C43.7934 23.3333 44.1665 23.7064 44.1665 24.1667ZM44.9998 24.1667C44.9998 25.0872 44.2537 25.8333 43.3332 25.8333C43.0042 25.8333 42.6974 25.738 42.4391 25.5735L42.4613 25.6192L28.3332 32.5099C28.3278 33.4258 27.5837 34.1667 26.6665 34.1667C25.746 34.1667 24.9998 33.4205 24.9998 32.5C24.9998 31.5795 25.746 30.8333 26.6665 30.8333C26.9723 30.8333 27.2588 30.9157 27.5052 31.0594L41.6666 24.1524C41.6742 23.2385 42.4174 22.5 43.3332 22.5C44.2537 22.5 44.9998 23.2462 44.9998 24.1667ZM26.6665 33.3333C27.1268 33.3333 27.4998 32.9603 27.4998 32.5C27.4998 32.0398 27.1268 31.6667 26.6665 31.6667C26.2063 31.6667 25.8332 32.0398 25.8332 32.5C25.8332 32.9603 26.2063 33.3333 26.6665 33.3333Z" fill="#3837AC"></path><path d="M45.5832 53.3333H24.4165C24.2784 53.3333 24.1665 53.2214 24.1665 53.0833V51.9167C24.1665 51.7786 24.2803 51.6667 24.4183 51.6656C29.9016 51.6198 33.1089 50.0751 33.3218 47.7498C33.3344 47.6123 33.4451 47.5 33.5832 47.5H36.4165C36.5546 47.5 36.6653 47.6123 36.6778 47.7498C36.8908 50.0751 40.0981 51.6198 45.5813 51.6656C45.7194 51.6667 45.8332 51.7786 45.8332 51.9167V53.0833C45.8332 53.2214 45.7213 53.3333 45.5832 53.3333Z" fill="#3837AC"></path></svg>