<svg xmlns="http://www.w3.org/2000/svg" width="70" height="70" viewBox="0 0 70 70" fill="none"><circle cx="35" cy="35" r="35" fill="#FEF4EB"></circle><path d="M24.5833 26.5091C26.7398 25.954 28.3333 23.9965 28.3333 21.6666C28.3333 18.9052 26.0947 16.6666 23.3333 16.6666C20.5718 16.6666 18.3333 18.9052 18.3333 21.6666C18.3333 23.9965 19.9267 25.954 22.0833 26.5091V43.4908C19.9267 44.0459 18.3333 46.0035 18.3333 48.3333C18.3333 51.0947 20.5718 53.3333 23.3333 53.3333C26.0947 53.3333 28.3333 51.0947 28.3333 48.3333C28.3333 46.0486 26.8009 44.1219 24.708 43.5246L26.7171 40.511C27.1035 39.9315 27.754 39.5833 28.4505 39.5833H43.3333C45.8645 39.5833 47.9166 37.5312 47.9166 35V33.1758C50.0731 32.6207 51.6666 30.6631 51.6666 28.3333C51.6666 25.5719 49.428 23.3333 46.6666 23.3333C43.9052 23.3333 41.6666 25.5719 41.6666 28.3333C41.6666 30.6631 43.2601 32.6207 45.4166 33.1758V35C45.4166 36.1505 44.4838 37.0833 43.3333 37.0833H28.4505C26.9181 37.0833 25.487 37.8492 24.6369 39.1242L24.5833 39.2048V26.5091Z" fill="#FE890F"></path></svg>