<svg xmlns="http://www.w3.org/2000/svg" width="70" height="70" viewBox="0 0 70 70" fill="none"><circle cx="35" cy="35" r="35" fill="#ECF3FE"></circle><path d="M48.4543 21.9066L47.4704 21.844C47.7868 19.1308 45.4395 16.6666 42.5 16.6666C39.7828 16.6666 37.5719 18.6895 37.5017 21.2097L37.417 21.2043C35.5854 21.0877 33.9836 22.1915 33.4898 23.75H22.9166C19.4648 23.75 16.6666 26.5482 16.6666 30V40C16.6666 40.6903 17.2263 41.25 17.9166 41.25C18.607 41.25 19.1666 40.6903 19.1666 40V30C19.1666 27.9289 20.8456 26.25 22.9166 26.25H33.6792C34.283 27.4794 35.613 28.3333 37.1569 28.3333H48.2198C50.1235 28.3333 51.6666 26.893 51.6666 25.1162C51.6666 23.4245 50.2627 22.0217 48.4543 21.9066Z" fill="#3837AC"></path><path d="M53.3334 35C53.3334 34.3097 52.7737 33.75 52.0834 33.75C51.393 33.75 50.8334 34.3097 50.8334 35V45C50.8334 47.0711 49.1545 48.75 47.0834 48.75H36.5102C36.0164 47.1915 34.4146 46.0878 32.583 46.2043L32.4983 46.2097C32.4281 43.6895 30.2172 41.6667 27.5 41.6667C24.5605 41.6667 22.2132 44.1308 22.5296 46.8441L21.5457 46.9067C19.7373 47.0217 18.3334 48.4245 18.3334 50.1162C18.3334 51.893 19.8766 53.3333 21.7802 53.3333H32.8431C34.387 53.3333 35.717 52.4794 36.3208 51.25H47.0834C50.5351 51.25 53.3334 48.4517 53.3334 45V35Z" fill="#3837AC"></path></svg>