<svg xmlns="http://www.w3.org/2000/svg" width="40" height="40" viewBox="0 0 40 40" fill="none"><path fill-rule="evenodd" clip-rule="evenodd" d="M14.9152 13.2365C19.1068 8.24114 27.5001 1.6665 38.3335 1.6665C38.3335 10.8332 32.5023 20.9045 26.497 25.5905C25.7065 26.2073 25.5634 27.3294 25.3966 28.6376C25.0205 31.5883 24.5237 35.4859 16.202 36.6665L15.7731 28.9985H14.0573L10.6257 25.5905V23.8865H3.3335C4.52868 15.5778 8.63763 14.917 11.7461 14.4171C13.1002 14.1993 14.2645 14.0121 14.9152 13.2365ZM33.3335 9.58317C33.3335 11.194 32.0276 12.4998 30.4168 12.4998C28.806 12.4998 27.5001 11.194 27.5001 9.58317C27.5001 7.97234 28.806 6.6665 30.4168 6.6665C32.0276 6.6665 33.3335 7.97234 33.3335 9.58317Z" fill="white"></path><path d="M1.66675 38.3333C10 38.3333 13.4093 35.285 14.5834 31.6667C11.25 31.6667 7.70992 28.0152 7.70992 25C5.75337 25.6031 1.66675 29.1301 1.66675 38.3333Z" fill="white"></path></svg>