<svg xmlns="http://www.w3.org/2000/svg" width="48" height="48" viewBox="0 0 48 48" fill="none"><path fill-rule="evenodd" clip-rule="evenodd" d="M17.8983 15.884C22.9282 9.88956 33.0002 2 46.0002 2C46.0002 13 39.0028 25.0856 31.7964 30.7088C30.8478 31.449 30.6761 32.7955 30.476 34.3653C30.0247 37.9062 29.4285 42.5833 19.4425 44L18.9278 34.7984H16.8688L12.7509 30.7088V28.664H4.00024C5.43446 18.6936 10.3652 17.9006 14.0954 17.3007C15.7203 17.0394 17.1174 16.8147 17.8983 15.884ZM40.0002 11.5C40.0002 13.433 38.4332 15 36.5002 15C34.5672 15 33.0002 13.433 33.0002 11.5C33.0002 9.567 34.5672 8 36.5002 8C38.4332 8 40.0002 9.567 40.0002 11.5Z" fill="black"></path><path d="M2.00024 46C12.0002 46 16.0913 42.342 17.5002 38C13.5002 38 9.25206 33.6183 9.25206 30C6.90418 30.7237 2.00024 34.9561 2.00024 46Z" fill="black"></path></svg>