<svg xmlns="http://www.w3.org/2000/svg" width="40" height="40" viewBox="0 0 40 40" fill="none"><path fill-rule="evenodd" clip-rule="evenodd" d="M19.9078 2.54391C21.87 4.59831 26.1701 7.52267 32.4991 7.76206C32.959 7.77945 33.3333 8.14881 33.3333 8.60909V24.3651C33.3333 30.2778 23.3867 36.1907 19.5332 38.1497C19.3023 38.2671 19.031 38.2671 18.8001 38.1497C14.9466 36.1907 5 30.2778 5 24.3651V8.61108C5 8.15086 5.37433 7.77945 5.83424 7.76206C12.1632 7.52267 16.4633 4.59831 18.4255 2.54391C18.8172 2.1338 19.5162 2.1338 19.9078 2.54391ZM28.4446 14.5687C28.8967 14.0469 28.8403 13.2575 28.3187 12.8053C27.7969 12.3533 27.0075 12.4097 26.5554 12.9313L16.5363 24.4918L11.6468 20.3009C11.1227 19.8517 10.3335 19.9123 9.88425 20.4365C9.435 20.9607 9.49567 21.7498 10.0198 22.1991L15.8532 27.1991C16.3753 27.6466 17.1609 27.5883 17.6112 27.0687L28.4446 14.5687Z" fill="#27BFA6"></path></svg>