<svg xmlns="http://www.w3.org/2000/svg" width="48" height="48" viewBox="0 0 48 48" fill="none"><path fill-rule="evenodd" clip-rule="evenodd" d="M23.8894 3.05269C26.244 5.51797 31.4041 9.0272 38.9989 9.31447C39.5508 9.33534 40 9.77857 40 10.3309V29.2381C40 36.3334 28.0641 43.4288 23.4399 45.7796C23.1628 45.9205 22.8372 45.9205 22.5601 45.7796C17.9359 43.4288 6 36.3334 6 29.2381V10.3333C6 9.78103 6.4492 9.33534 7.00109 9.31447C14.5959 9.0272 19.756 5.51797 22.1106 3.05269C22.5806 2.56056 23.4194 2.56056 23.8894 3.05269ZM34.1335 17.4824C34.6761 16.8563 34.6084 15.909 33.9824 15.3664C33.3563 14.8239 32.409 14.8916 31.8665 15.5176L19.8435 29.3902L13.9762 24.3611C13.3472 23.822 12.4002 23.8948 11.8611 24.5238C11.322 25.1528 11.3948 26.0997 12.0238 26.6389L19.0238 32.6389C19.6504 33.1759 20.5931 33.106 21.1335 32.4824L34.1335 17.4824Z" fill="black"></path></svg>