<svg xmlns="http://www.w3.org/2000/svg" width="48" height="48" viewBox="0 0 48 48" fill="none"><path d="M10.3808 15.5287C13.7598 15.5287 16.499 12.7896 16.499 9.41061C16.499 6.03166 13.7598 3.29248 10.3808 3.29248C7.00188 3.29248 4.2627 6.03166 4.2627 9.41061C4.2627 12.7896 7.00188 15.5287 10.3808 15.5287Z" fill="black"></path><path d="M38.6181 15.5287C41.9971 15.5287 44.7363 12.7896 44.7363 9.41061C44.7363 6.03166 41.9971 3.29248 38.6181 3.29248C35.2392 3.29248 32.5 6.03166 32.5 9.41061C32.5 12.7896 35.2392 15.5287 38.6181 15.5287Z" fill="black"></path><path d="M10.3808 44.7074C13.7598 44.7074 16.499 41.9682 16.499 38.5893C16.499 35.2103 13.7598 32.4712 10.3808 32.4712C7.00188 32.4712 4.2627 35.2103 4.2627 38.5893C4.2627 41.9682 7.00188 44.7074 10.3808 44.7074Z" fill="black"></path><path d="M38.6181 44.7074C41.9971 44.7074 44.7363 41.9682 44.7363 38.5893C44.7363 35.2103 41.9971 32.4712 38.6181 32.4712C35.2392 32.4712 32.5 35.2103 32.5 38.5893C32.5 41.9682 35.2392 44.7074 38.6181 44.7074Z" fill="black"></path><path d="M34.3825 7.99878H14.6162V10.8225H34.3825V7.99878Z" fill="black"></path><path d="M40.501 33.8832V14.1169H37.6772V33.8832H40.501Z" fill="black"></path><path d="M34.3825 37.1775H14.6162V40.0013H34.3825V37.1775Z" fill="black"></path><path d="M11.3223 33.8832V14.1169H8.49854V33.8832H11.3223Z" fill="black"></path></svg>