<svg xmlns="http://www.w3.org/2000/svg" width="40" height="40" viewBox="0 0 40 40" fill="none"><path d="M8.65066 12.9405C11.4665 12.9405 13.7492 10.6579 13.7492 7.84209C13.7492 5.0263 11.4665 2.74365 8.65066 2.74365C5.8349 2.74365 3.55225 5.0263 3.55225 7.84209C3.55225 10.6579 5.8349 12.9405 8.65066 12.9405Z" fill="white"></path><path d="M32.1817 12.9405C34.9975 12.9405 37.2802 10.6579 37.2802 7.84209C37.2802 5.0263 34.9975 2.74365 32.1817 2.74365C29.3659 2.74365 27.0833 5.0263 27.0833 7.84209C27.0833 10.6579 29.3659 12.9405 32.1817 12.9405Z" fill="white"></path><path d="M8.65066 37.2564C11.4665 37.2564 13.7492 34.9737 13.7492 32.158C13.7492 29.3422 11.4665 27.0596 8.65066 27.0596C5.8349 27.0596 3.55225 29.3422 3.55225 32.158C3.55225 34.9737 5.8349 37.2564 8.65066 37.2564Z" fill="white"></path><path d="M32.1817 37.2564C34.9975 37.2564 37.2802 34.9737 37.2802 32.158C37.2802 29.3422 34.9975 27.0596 32.1817 27.0596C29.3659 27.0596 27.0833 29.3422 27.0833 32.158C27.0833 34.9737 29.3659 37.2564 32.1817 37.2564Z" fill="white"></path><path d="M28.6521 6.66553H12.1802V9.01863H28.6521V6.66553Z" fill="white"></path><path d="M33.7509 28.2361V11.7642H31.3977V28.2361H33.7509Z" fill="white"></path><path d="M28.6521 30.9814H12.1802V33.3346H28.6521V30.9814Z" fill="white"></path><path d="M9.43518 28.2361V11.7642H7.08203V28.2361H9.43518Z" fill="white"></path></svg>