<svg xmlns="http://www.w3.org/2000/svg" width="48" height="48" viewBox="0 0 48 48" fill="none"><path fill-rule="evenodd" clip-rule="evenodd" d="M4 3C2.89543 3 2 3.89543 2 5V28H46V5C46 3.89543 45.1046 3 44 3H4ZM46 30H2V36C2 37.1046 2.89543 38 4 38H44C45.1046 38 46 37.1046 46 36V30ZM26 34C26 35.1046 25.1046 36 24 36C22.8954 36 22 35.1046 22 34C22 32.8954 22.8954 32 24 32C25.1046 32 26 32.8954 26 34ZM35 11C35 11.5523 34.5523 12 34 12C33.4477 12 33 11.5523 33 11C33 10.4477 33.4477 10 34 10C34.5523 10 35 10.4477 35 11ZM36 11C36 12.1046 35.1046 13 34 13C33.6052 13 33.2371 12.8856 32.9271 12.6882L32.9538 12.743L16 21.0119C15.9936 22.111 15.1006 23 14 23C12.8954 23 12 22.1046 12 21C12 19.8954 12.8954 19 14 19C14.3669 19 14.7108 19.0988 15.0064 19.2713L32.0001 10.9829C32.0092 9.88622 32.9011 9 34 9C35.1046 9 36 9.89543 36 11ZM14 22C14.5523 22 15 21.5523 15 21C15 20.4477 14.5523 20 14 20C13.4477 20 13 20.4477 13 21C13 21.5523 13.4477 22 14 22Z" fill="black"></path><path d="M36.7 46H11.3C11.1343 46 11 45.8657 11 45.7V44.3C11 44.1343 11.1365 44.0001 11.3022 43.9987C17.8821 43.9438 21.7309 42.0901 21.9864 39.2998C22.0015 39.1348 22.1343 39 22.3 39H25.7C25.8657 39 25.9985 39.1348 26.0136 39.2998C26.2691 42.0901 30.1179 43.9438 36.6978 43.9987C36.8635 44.0001 37 44.1343 37 44.3V45.7C37 45.8657 36.8657 46 36.7 46Z" fill="black"></path></svg>