<svg xmlns="http://www.w3.org/2000/svg" width="20" height="20" viewBox="0 0 20 20" fill="none"><path d="M19.0853 5.41971C18.8672 4.59853 18.2246 3.95179 17.4088 3.73232C15.9299 3.3335 10 3.3335 10 3.3335C10 3.3335 4.07019 3.3335 2.59133 3.73232C1.77546 3.95183 1.13289 4.59853 0.914805 5.41971C0.518555 6.90815 0.518555 10.0136 0.518555 10.0136C0.518555 10.0136 0.518555 13.1191 0.914805 14.6076C1.13289 15.4287 1.77546 16.0485 2.59133 16.268C4.07019 16.6668 10 16.6668 10 16.6668C10 16.6668 15.9299 16.6668 17.4088 16.268C18.2246 16.0485 18.8672 15.4287 19.0853 14.6076C19.4815 13.1191 19.4815 10.0136 19.4815 10.0136C19.4815 10.0136 19.4815 6.90815 19.0853 5.41971ZM8.06064 12.8332V7.19409L13.0169 10.0137L8.06064 12.8332Z" fill="#ADB0CC"></path></svg>